<?xml version="1.0" standalone="no"?>
<!DOCTYPE svg PUBLIC "-//W3C//DTD SVG 20010904//EN"
 "http://www.w3.org/TR/2001/REC-SVG-20010904/DTD/svg10.dtd">
<svg version="1.0" xmlns="http://www.w3.org/2000/svg"
 width="860.000000pt" height="621.000000pt" viewBox="0 0 860.000000 621.000000"
 preserveAspectRatio="xMidYMid meet">

<g transform="translate(0.000000,621.000000) scale(0.100000,-0.100000)"
fill="#000000" stroke="none">
<path d="M3930 4560 c-131 -22 -204 -41 -301 -79 -203 -79 -393 -202 -555
-361 l-71 -70 -294 -59 c-162 -33 -305 -64 -320 -69 -14 -6 -47 -25 -73 -43
-75 -50 -106 -124 -118 -287 -13 -169 -8 -210 30 -269 27 -41 29 -48 14 -51
-9 -1 -27 -5 -39 -8 l-23 -4 0 -220 c0 -159 3 -220 11 -220 7 0 95 16 197 36
101 19 185 34 187 32 1 -2 8 -52 14 -113 30 -308 141 -587 332 -835 105 -137
179 -211 304 -304 134 -100 227 -152 399 -221 202 -80 313 -100 571 -100 161
0 233 4 310 19 202 37 492 164 663 291 37 28 107 88 157 135 l90 86 205 38
c113 22 213 43 223 48 14 7 17 24 17 116 l1 107 49 -103 c40 -84 53 -103 67
-98 10 3 92 19 183 36 91 17 172 33 182 36 17 5 18 9 34 268 l6 99 -27 -7 -27
-7 6 108 c15 253 15 251 47 258 28 6 29 8 30 73 1 37 3 78 4 92 2 14 4 61 6
105 3 67 1 80 -11 78 -8 -1 -93 -16 -187 -32 -95 -17 -184 -31 -197 -31 -14 0
-27 -4 -30 -8 -3 -5 -6 -59 -7 -120 -1 -62 -5 -112 -9 -112 -3 0 -17 26 -30
58 -65 161 -60 153 -94 150 l-31 -3 -7 95 c-25 324 -171 671 -392 929 -103
120 -245 241 -383 326 -50 30 -63 43 -63 62 0 22 -3 24 -29 18 -22 -5 -58 5
-143 39 -117 47 -231 77 -378 102 -119 20 -368 17 -500 -6z m554 -91 c35 -28
35 -70 0 -98 -15 -12 -33 -21 -41 -21 -21 0 -63 46 -63 70 0 24 42 70 63 70 8
0 26 -9 41 -21z m-502 -16 c27 -24 23 -68 -8 -92 -15 -12 -32 -21 -39 -21 -23
0 -65 41 -65 64 0 57 69 88 112 49z m904 -220 c-8 -88 -10 -93 -36 -93 -15 0
-20 -9 -24 -42 -6 -53 -26 -406 -26 -469 0 -44 1 -46 25 -41 24 4 25 2 24 -39
0 -24 -3 -62 -7 -84 l-7 -39 -85 -17 c-47 -10 -103 -20 -126 -24 l-41 -6 -114
257 c-70 158 -115 247 -116 233 -1 -13 -7 -139 -13 -279 -6 -140 -13 -256 -15
-258 -2 -3 -46 -13 -97 -23 -51 -10 -103 -21 -115 -24 -21 -5 -23 -2 -23 42 0
68 11 123 24 123 36 1 39 17 52 247 19 330 19 316 -12 310 l-26 -5 4 79 c3 44
8 82 11 85 6 7 249 56 253 51 6 -7 214 -510 214 -518 0 -5 4 -9 8 -9 5 0 13
129 19 286 7 157 14 288 16 290 6 6 185 41 216 43 24 1 24 1 17 -76z m-1402
46 c35 -28 35 -70 -1 -98 -41 -33 -103 -1 -103 54 0 24 42 65 65 65 7 0 24 -9
39 -21z m1044 -4 c15 -4 22 -14 22 -31 0 -22 -3 -24 -22 -19 -24 7 -58 40 -58
57 0 5 8 7 18 4 9 -2 27 -7 40 -11z m472 -30 c0 -13 -4 -27 -10 -30 -6 -4 -10
8 -10 30 0 22 4 34 10 30 6 -3 10 -17 10 -30z m-1401 -101 c12 -28 16 -27 -51
-8 -21 6 -21 7 -3 20 27 20 40 17 54 -12z m421 -63 c0 -76 -6 -101 -24 -101
-35 -1 -38 -17 -52 -246 -7 -126 -13 -249 -14 -273 0 -42 1 -43 26 -37 l27 7
-5 -80 c-3 -45 -7 -83 -10 -86 -4 -5 -292 -65 -310 -65 -9 0 -11 78 -2 133 5
30 11 37 30 37 28 0 29 7 44 290 14 287 15 272 -15 264 -24 -6 -25 -4 -25 42
0 27 3 65 6 86 l6 36 152 30 c83 16 154 30 159 31 4 0 7 -30 7 -68z m-445 -65
c32 -32 39 -89 26 -234 -17 -207 -51 -243 -266 -284 l-115 -22 0 -37 c0 -20
-3 -64 -6 -98 l-7 -62 27 7 27 6 -3 -83 -3 -84 -135 -27 c-74 -15 -147 -29
-162 -32 l-28 -5 0 80 c0 67 3 80 18 85 47 15 47 13 59 220 6 109 12 232 12
273 l1 73 -26 -6 -26 -7 3 80 c2 44 7 82 10 86 12 12 455 93 512 94 48 1 62
-3 82 -23z m1475 -36 c48 -26 314 -369 298 -385 -5 -6 -399 -185 -406 -185 -3
0 -2 68 2 151 l8 152 -26 -7 c-26 -6 -26 -6 -26 52 0 55 3 63 62 145 33 48 63
87 65 87 2 0 13 -4 23 -10z m324 -15 c26 -27 29 -56 9 -84 -24 -32 -56 -38
-89 -17 -29 20 -33 70 -7 98 20 22 66 24 87 3z m-2525 -117 c0 -40 -4 -95 -7
-123 l-7 -49 -85 -17 c-47 -9 -88 -15 -92 -13 -4 2 -4 21 -1 41 6 34 5 36 -18
30 -13 -3 -49 -10 -80 -17 l-56 -11 -6 -92 c-3 -51 -4 -93 -2 -95 1 -1 57 7
124 19 152 28 187 23 215 -35 18 -37 19 -50 9 -185 -17 -251 -30 -263 -355
-327 -122 -24 -223 -44 -224 -44 -3 0 7 214 11 236 4 17 16 23 72 32 38 6 82
14 100 18 l31 6 -5 -41 c-7 -47 -5 -48 92 -28 l60 13 8 98 c4 55 5 101 3 103
-2 3 -50 -5 -107 -16 -174 -36 -219 -26 -240 51 -13 51 -4 231 17 304 15 54
68 114 115 130 29 9 387 82 412 83 15 1 17 -8 16 -71z m1227 -65 c-13 -212
-17 -243 -33 -243 -13 0 -15 16 -9 118 11 193 16 232 33 232 13 0 14 -16 9
-107z m1562 -266 c6 -6 13 -24 17 -39 5 -21 1 -33 -19 -52 -30 -31 -59 -33
-86 -6 -24 24 -26 67 -3 92 19 21 75 24 91 5z m-178 -41 c45 -101 100 -366
100 -482 0 -59 -1 -60 -110 -70 -63 -6 -766 32 -782 42 -4 3 -8 14 -8 25 0 19
5 20 78 14 82 -6 736 -45 762 -45 31 0 -3 254 -56 423 -14 42 -26 77 -27 77
-1 0 -173 -88 -382 -194 -306 -157 -382 -192 -388 -180 -5 8 -7 19 -5 25 3 9
774 407 791 408 4 1 17 -19 27 -43z m-1851 5 c19 -12 4 -31 -25 -31 -26 0 -31
9 -12 28 14 14 19 15 37 3z m842 -42 c8 -16 8 -27 -2 -45 -19 -35 -25 -29 -21
21 2 25 6 45 8 45 2 0 8 -10 15 -21z m-971 -81 l80 -53 -6 -100 c-4 -55 -8
-102 -10 -103 -1 -2 -46 -1 -99 3 l-96 7 6 137 c4 75 8 142 10 149 7 22 34 13
115 -40z m1161 -89 c-57 -26 -66 -28 -80 -15 -17 18 -15 19 59 34 80 17 86 11
21 -19z m-483 -164 c-4 -48 -2 -55 14 -55 20 0 21 -4 12 -49 -4 -17 -12 -31
-19 -31 -12 0 -25 -70 -25 -144 0 -30 3 -37 15 -32 12 4 15 -4 15 -38 l0 -42
-61 -12 c-34 -6 -66 -9 -72 -5 -5 3 -6 51 -2 124 6 106 5 119 -9 119 -26 0
-22 80 4 87 15 4 20 15 22 56 3 50 4 52 43 63 67 21 68 20 63 -41z m-398 0 c0
-12 -14 -15 -62 -15 -66 0 -71 9 -11 20 60 12 73 11 73 -5z m731 -32 c7 -19 8
-66 1 -146 -11 -147 -15 -152 -138 -178 -109 -22 -99 -22 -118 -3 -13 12 -16
39 -16 128 0 124 11 170 44 188 29 16 122 36 174 37 38 1 44 -2 53 -26z m1230
-63 c36 -20 21 -36 -41 -46 -54 -9 -60 -8 -60 7 0 21 36 49 63 49 10 0 27 -5
38 -10z m-2181 -24 c191 -11 195 -12 198 -33 3 -19 -1 -23 -25 -23 -23 0 -657
37 -703 41 -8 1 21 9 65 19 85 19 83 19 465 -4z m2790 -35 c0 -21 -3 -59 -6
-85 -6 -40 -10 -46 -30 -46 -13 0 -24 -1 -24 -2 -3 -20 -29 -485 -30 -516 0
-40 1 -42 25 -36 24 6 25 4 25 -42 0 -27 -3 -65 -6 -85 l-6 -37 -119 -22 c-65
-12 -123 -20 -130 -18 -10 3 -219 469 -219 489 0 5 -4 9 -9 9 -5 0 -12 -93
-16 -207 -4 -115 -10 -239 -14 -278 l-6 -70 -85 -17 c-169 -33 -150 -33 -150
4 0 18 3 57 6 86 6 42 10 52 26 52 10 0 22 10 27 23 5 12 14 126 20 252 15
308 16 287 -14 279 -24 -6 -25 -4 -25 34 0 21 3 60 6 84 l6 46 124 24 c89 18
126 22 132 14 5 -6 55 -123 112 -261 57 -137 106 -254 110 -258 4 -4 10 79 14
185 3 106 9 238 13 294 l6 101 101 20 c142 29 136 30 136 -16z m-3560 -60
c-15 -29 -55 -37 -85 -17 -35 23 -31 32 18 45 23 6 49 15 57 21 19 12 26 -20
10 -49z m123 -16 c11 -124 75 -395 94 -395 3 0 174 86 379 190 205 105 375
190 378 190 3 0 6 -10 6 -23 0 -19 -50 -48 -385 -221 -212 -109 -392 -196
-399 -193 -31 12 -103 288 -121 460 -7 66 -6 67 18 67 23 0 24 -4 30 -75z
m1921 -30 c71 -8 130 -16 132 -18 7 -6 -294 -59 -304 -53 -15 9 10 86 28 86 8
0 73 -7 144 -15z m-859 -81 c-6 -45 -18 -56 -29 -28 -10 26 -7 48 11 74 21 30
27 14 18 -46z m1494 -100 c-6 -8 -20 -14 -30 -14 -11 0 -19 -1 -19 -2 -9 -145
-30 -501 -30 -520 0 -23 4 -28 25 -28 24 0 25 -2 25 -74 0 -47 -5 -77 -12 -83
-11 -9 -274 -63 -306 -63 -13 0 -15 60 -4 125 6 31 12 40 32 45 l25 6 12 209
c6 116 12 239 14 275 l2 65 -26 -3 c-25 -3 -27 -1 -26 35 0 21 4 58 7 83 l7
45 155 30 155 30 3 -73 c2 -46 -2 -79 -9 -88z m-375 14 c-7 -92 -9 -98 -34
-98 -11 0 -23 -7 -27 -16 -3 -9 -38 -176 -77 -372 l-72 -357 -134 -27 c-74
-15 -136 -25 -138 -23 -2 2 -19 131 -38 286 -19 156 -36 284 -37 285 -1 2 -33
-135 -71 -304 -38 -169 -70 -308 -71 -310 -4 -5 -265 -55 -269 -51 -2 2 -18
141 -35 309 -44 419 -38 388 -67 382 -24 -4 -24 -3 -24 71 0 48 4 78 13 84 11
10 270 63 303 63 13 0 15 -11 9 -77 -8 -81 -15 -93 -52 -93 -20 0 -23 -5 -23
-41 0 -42 29 -523 33 -549 1 -8 42 165 90 385 48 219 90 401 92 403 4 5 185
41 185 37 0 -1 18 -154 40 -341 22 -186 40 -354 40 -373 0 -19 3 -31 7 -27 6
6 102 562 103 596 0 12 -9 15 -38 12 l-37 -4 3 79 c2 43 6 80 8 82 5 5 272 58
301 60 21 1 22 -2 17 -71z m-1221 -52 c-4 -6 -107 -170 -230 -363 -195 -306
-227 -352 -242 -343 -60 31 -337 358 -319 375 3 3 174 93 379 200 l374 194 22
-26 c12 -15 19 -32 16 -37z m-1018 -146 c52 -20 52 -100 0 -120 -55 -21 -106
30 -85 85 8 21 24 33 57 44 1 1 13 -3 28 -9z m876 -409 c-89 -138 -161 -256
-161 -260 0 -20 283 -128 385 -146 55 -10 75 -22 75 -46 0 -22 7 -22 -132 12
-43 11 -111 31 -150 45 -91 33 -250 112 -246 123 2 4 89 141 193 304 184 288
190 296 193 258 3 -35 -12 -62 -157 -290z m1345 181 c-12 -11 -18 7 -10 30 l8
23 4 -23 c2 -13 1 -26 -2 -30z m-1955 -223 c41 -21 44 -86 5 -111 -19 -13 -64
-9 -80 8 -24 24 -20 80 6 98 26 19 42 20 69 5z m1889 -133 c0 -13 -7 -29 -15
-36 -17 -14 -20 -3 -9 38 8 29 24 28 24 -2z m-500 -177 c0 -25 -5 -39 -16 -43
-24 -9 -26 -4 -12 53 13 57 28 51 28 -10z m505 -24 c30 -29 32 -55 7 -85 -36
-45 -112 -17 -112 42 0 33 31 68 60 68 12 0 32 -11 45 -25z m-1483 -12 c38
-34 8 -113 -42 -113 -26 0 -70 43 -70 67 0 10 7 29 16 41 18 27 69 30 96 5z
m1007 -169 c26 -34 26 -54 1 -82 -42 -45 -110 -17 -110 44 0 61 71 86 109 38z
m-520 -10 c12 -15 21 -32 21 -39 0 -7 -9 -24 -21 -39 -38 -48 -111 -23 -111
39 0 62 73 87 111 39z"/>
<path d="M3300 3846 l-55 -11 -9 -108 c-5 -59 -7 -109 -5 -111 6 -6 142 23
150 32 4 4 9 53 11 110 6 117 12 110 -92 88z"/>
<path d="M4343 3002 c-7 -4 -15 -44 -19 -90 -7 -78 -6 -82 14 -82 48 0 52 7
52 96 0 73 -2 84 -17 84 -10 0 -23 -4 -30 -8z"/>
</g>
</svg>
